<svg width="200" height="200" viewBox="0 0 200 200" fill="none" xmlns="http://www.w3.org/2000/svg">
<path d="M124.314 76.808L124.323 76.801C132.211 70.2016 136 60.7765 136 49C136 37.2499 132.226 27.9275 124.319 21.5651C116.977 15.2191 108.5 12 99 12C89.4863 12 80.8932 15.2274 73.3157 21.5651C65.6407 27.9405 62 37.2659 62 49C62 60.7415 65.6429 70.1569 73.272 76.7673L73.3153 76.8048L73.36 76.8406C80.9417 82.9191 89.5199 86 99 86C108.483 86 116.958 82.9165 124.314 76.808Z" fill="#2D2B29" stroke="#F9F5EE" stroke-width="6"/>
<path d="M124.314 178.808L124.323 178.801C132.211 172.202 136 162.777 136 151C136 139.25 132.226 129.927 124.319 123.565C116.977 117.219 108.5 114 99 114C89.4864 114 80.8933 117.227 73.3158 123.565C65.6408 129.94 62 139.266 62 151C62 162.741 65.6429 172.157 73.272 178.767L73.3153 178.805L73.36 178.841C80.9417 184.919 89.5199 188 99 188C108.483 188 116.958 184.916 124.314 178.808Z" fill="#2D2B29" stroke="#F9F5EE" stroke-width="6"/>
</svg>
