<svg width="200" height="200" viewBox="0 0 200 200" fill="none" xmlns="http://www.w3.org/2000/svg">
<path d="M125.592 78.3467L125.599 78.3409L125.606 78.335C134.041 71.2781 138 61.2363 138 49C138 36.8068 134.065 26.855 125.601 20.029C117.912 13.3942 108.984 10 99 10C88.9934 10 79.9523 13.4079 72.0352 20.0288C63.7932 26.8766 60 36.8344 60 49C60 61.1778 63.7967 71.2036 71.9624 78.2788L72.0345 78.3413L72.109 78.4011C80.0331 84.754 89.0493 88 99 88C108.955 88 117.881 84.7498 125.592 78.3467Z" fill="#2D2B29" stroke="#F9F5EE" stroke-width="10"/>
<path d="M125.592 180.347L125.599 180.341L125.606 180.335C134.041 173.278 138 163.236 138 151C138 138.807 134.065 128.855 125.601 122.029C117.912 115.394 108.984 112 99 112C88.9934 112 79.9523 115.408 72.0352 122.029C63.7932 128.877 60 138.834 60 151C60 163.178 63.7967 173.204 71.9624 180.279L72.0345 180.341L72.109 180.401C80.0331 186.754 89.0493 190 99 190C108.955 190 117.881 186.75 125.592 180.347Z" fill="#2D2B29" stroke="#F9F5EE" stroke-width="10"/>
</svg>
