<svg width="20" height="50" viewBox="0 0 20 50" fill="none" xmlns="http://www.w3.org/2000/svg">
<path d="M20 10C20 13.2609 18.9606 15.7609 16.8817 17.5C14.8746 19.1667 12.5806 20 10 20C7.41935 20 5.08961 19.1667 3.01075 17.5C1.00358 15.7609 0 13.2609 0 10C0 6.73913 1.00358 4.27536 3.01075 2.60869C5.08961 0.869564 7.41935 0 10 0C12.5806 0 14.8746 0.869564 16.8817 2.60869C18.9606 4.27536 20 6.73913 20 10Z" fill="#2D2B29"/>
<path d="M20 40C20 43.2609 18.9606 45.7609 16.8817 47.5C14.8746 49.1667 12.5806 50 10 50C7.41935 50 5.08961 49.1667 3.01075 47.5C1.00358 45.7609 0 43.2609 0 40C0 36.7391 1.00358 34.2754 3.01075 32.6087C5.08961 30.8696 7.41935 30 10 30C12.5806 30 14.8746 30.8696 16.8817 32.6087C18.9606 34.2754 20 36.7391 20 40Z" fill="#2D2B29"/>
</svg>
